Khula-wt719.83.ufo
<glyph name="quotedbl.deva" format="1">
  <advance width="985"/>
  <unicode hex="0022"/>
  <outline>
    <contour>
      <point x="428" y="1316" type="line"/>
      <point x="391" y="841" type="line"/>
      <point x="201" y="841" type="line"/>
      <point x="164" y="1316" type="line"/>
    </contour>
    <contour>
      <point x="821" y="1316" type="line"/>
      <point x="784" y="841" type="line"/>
      <point x="593" y="841" type="line"/>
      <point x="556" y="1316" type="line"/>
    </contour>
  </outline>
</glyph>
<glyph name="slash.deva" format="1">
  <advance width="764"/>
  <unicode hex="002F"/>
  <outline>
    <contour>
      <point x="755" y="1328" type="line"/>
      <point x="264" y="-11" type="line"/>
      <point x="12" y="-11" type="line"/>
      <point x="502" y="1328" type="line"/>
    </contour>
  </outline>
</glyph>
<glyph name="less.deva" format="1">
  <advance width="1047"/>
  <unicode hex="003C"/>
  <outline>
    <contour>
      <point x="969" y="181" type="line"/>
      <point x="76" y="576" type="line"/>
      <point x="76" y="707" type="line"/>
      <point x="969" y="1153" type="line"/>
      <point x="969" y="935" type="line"/>
      <point x="358" y="651" type="line"/>
      <point x="969" y="400" type="line"/>
    </contour>
  </outline>
</glyph>
<glyph name="greater.deva" format="1">
  <advance width="1047"/>
  <unicode hex="003E"/>
  <outline>
    <contour>
      <point x="76" y="400" type="line"/>
      <point x="687" y="650" type="line"/>
      <point x="76" y="935" type="line"/>
      <point x="76" y="1153" type="line"/>
      <point x="969" y="707" type="line"/>
      <point x="969" y="576" type="line"/>
      <point x="76" y="181" type="line"/>
    </contour>
  </outline>
</glyph>
<glyph name="E" format="1">
  <advance width="1017"/>
  <unicode hex="0045"/>
  <outline>
    <contour>
      <point x="920" y="0" type="line"/>
      <point x="156" y="0" type="line"/>
      <point x="156" y="1316" type="line"/>
      <point x="920" y="1316" type="line"/>
      <point x="920" y="1085" type="line"/>
      <point x="438" y="1085" type="line"/>
      <point x="438" y="799" type="line"/>
      <point x="887" y="799" type="line"/>
      <point x="887" y="568" type="line"/>
      <point x="438" y="568" type="line"/>
      <point x="438" y="234" type="line"/>
      <point x="920" y="234" type="line"/>
    </contour>
  </outline>
</glyph>
<glyph name="K" format="1">
  <advance width="1211"/>
  <unicode hex="004B"/>
  <outline>
    <contour>
      <point x="1211" y="0" type="line"/>
      <point x="891" y="0" type="line"/>
      <point x="563" y="557" type="line"/>
      <point x="437" y="468" type="line"/>
      <point x="437" y="0" type="line"/>
      <point x="154" y="0" type="line"/>
      <point x="154" y="1316" type="line"/>
      <point x="437" y="1316" type="line"/>
      <point x="437" y="713" type="line"/>
      <point x="450" y="738"/>
      <point x="517" y="820"/>
      <point x="556" y="875" type="curve"/>
      <point x="900" y="1316" type="line"/>
      <point x="1212" y="1316" type="line"/>
      <point x="763" y="736" type="line"/>
    </contour>
  </outline>
</glyph>
<glyph name="grave" format="1">
  <advance width="1092"/>
  <unicode hex="0060"/>
  <outline>
    <contour>
      <point x="646" y="1241" type="line"/>
      <point x="617" y="1260"/>
      <point x="555" y="1290"/>
      <point x="497" y="1330" type="curve" smooth="yes"/>
      <point x="424" y="1385"/>
      <point x="358" y="1436"/>
      <point x="302" y="1483" type="curve"/>
      <point x="287" y="1498"/>
      <point x="276" y="1524"/>
      <point x="271" y="1532" type="curve"/>
      <point x="549" y="1536" type="line"/>
      <point x="571" y="1506"/>
      <point x="650" y="1456"/>
      <point x="716" y="1385" type="curve"/>
      <point x="720" y="1377"/>
      <point x="767" y="1323"/>
      <point x="779" y="1306" type="curve"/>
      <point x="791" y="1291"/>
      <point x="803" y="1258"/>
      <point x="815" y="1245" type="curve"/>
    </contour>
  </outline>
</glyph>
<glyph name="k" format="1">
  <advance width="1124"/>
  <unicode hex="006B"/>
  <outline>
    <contour>
      <point x="406" y="548" type="line"/>
      <point x="442" y="605"/>
      <point x="479" y="656"/>
      <point x="517" y="702" type="curve" smooth="yes"/>
      <point x="779" y="1008" type="line"/>
      <point x="1093" y="1008" type="line"/>
      <point x="723" y="579" type="line"/>
      <point x="1117" y="0" type="line"/>
      <point x="796" y="0" type="line"/>
      <point x="527" y="402" type="line"/>
      <point x="413" y="311" type="line"/>
      <point x="413" y="0" type="line"/>
      <point x="135" y="0" type="line"/>
      <point x="135" y="1400" type="line"/>
      <point x="413" y="1400" type="line"/>
      <point x="413" y="780" type="line"/>
      <point x="413" y="708"/>
      <point x="408" y="630"/>
      <point x="398" y="548" type="curve"/>
    </contour>
  </outline>
</glyph>
<glyph name="v" format="1">
  <advance width="1052"/>
  <unicode hex="0076"/>
  <outline>
    <contour>
      <point x="384" y="0" type="line"/>
      <point x="0" y="1008" type="line"/>
      <point x="291" y="1008" type="line"/>
      <point x="479" y="411" type="line"/>
      <point x="498" y="354"/>
      <point x="517" y="288"/>
      <point x="520" y="248" type="curve"/>
      <point x="526" y="248" type="line"/>
      <point x="529" y="279"/>
      <point x="540" y="325"/>
      <point x="560" y="385" type="curve" smooth="yes"/>
      <point x="573" y="421"/>
      <point x="717" y="885"/>
      <point x="761" y="1008" type="curve"/>
      <point x="1052" y="1008" type="line"/>
      <point x="668" y="0" type="line"/>
    </contour>
  </outline>
</glyph>
<glyph name="bar.deva" format="1">
  <advance width="966"/>
  <unicode hex="007C"/>
  <outline>
    <contour>
      <point x="383" y="1400" type="line"/>
      <point x="582" y="1400" type="line"/>
      <point x="582" y="-417" type="line"/>
      <point x="383" y="-417" type="line"/>
    </contour>
  </outline>
</glyph>
<glyph name="divide.deva" format="1">
  <advance width="1047"/>
  <unicode hex="00F7"/>
  <outline>
    <contour>
      <point x="76" y="551" type="line"/>
      <point x="76" y="749" type="line"/>
      <point x="969" y="749" type="line"/>
      <point x="969" y="551" type="line"/>
    </contour>
    <contour>
      <point x="396" y="313" type="curve" smooth="yes"/>
      <point x="396" y="402"/>
      <point x="440" y="449"/>
      <point x="522" y="449" type="curve" smooth="yes"/>
      <point x="602" y="449"/>
      <point x="648" y="401"/>
      <point x="648" y="313" type="curve" smooth="yes"/>
      <point x="648" y="226"/>
      <point x="597" y="176"/>
      <point x="522" y="176" type="curve" smooth="yes"/>
      <point x="445" y="176"/>
      <point x="396" y="224"/>
    </contour>
    <contour>
      <point x="396" y="987" type="curve" smooth="yes"/>
      <point x="396" y="1077"/>
      <point x="440" y="1124"/>
      <point x="522" y="1124" type="curve" smooth="yes"/>
      <point x="602" y="1124"/>
      <point x="648" y="1076"/>
      <point x="648" y="987" type="curve" smooth="yes"/>
      <point x="648" y="902"/>
      <point x="597" y="851"/>
      <point x="522" y="851" type="curve" smooth="yes"/>
      <point x="445" y="851"/>
      <point x="396" y="899"/>
    </contour>
  </outline>
</glyph>
<glyph name="ghadeva" format="1">
  <advance width="1445"/>
  <unicode hex="0918"/>
  <outline>
    <contour>
      <point x="787" y="673" type="line"/>
      <point x="775" y="673" type="line"/>
      <point x="599" y="663"/>
      <point x="535" y="591"/>
      <point x="535" y="517" type="curve" smooth="yes"/>
      <point x="535" y="452"/>
      <point x="594" y="402"/>
      <point x="680" y="402" type="curve" smooth="yes"/>
      <point x="821" y="402"/>
      <point x="956" y="503"/>
      <point x="1016" y="628" type="curve"/>
      <point x="1016" y="247" type="line"/>
      <point x="932" y="200"/>
      <point x="832" y="169"/>
      <point x="708" y="169" type="curve" smooth="yes"/>
      <point x="436" y="169"/>
      <point x="274" y="344"/>
      <point x="274" y="549" type="curve" smooth="yes"/>
      <point x="274" y="717"/>
      <point x="395" y="899"/>
      <point x="707" y="899" type="curve" smooth="yes"/>
      <point x="716" y="899" type="line"/>
    </contour>
    <contour>
      <point x="375" y="701" type="line"/>
      <point x="159" y="759"/>
      <point x="64" y="886"/>
      <point x="64" y="1036" type="curve" smooth="yes"/>
      <point x="64" y="1103"/>
      <point x="83" y="1168"/>
      <point x="132" y="1219" type="curve"/>
      <point x="410" y="1158" type="line"/>
      <point x="370" y="1115"/>
      <point x="355" y="1065"/>
      <point x="355" y="1014" type="curve" smooth="yes"/>
      <point x="355" y="942"/>
      <point x="406" y="860"/>
      <point x="584" y="852" type="curve"/>
    </contour>
    <contour>
      <point x="-30" y="1096" type="line"/>
      <point x="-30" y="1289" type="line"/>
      <point x="1475" y="1289" type="line"/>
      <point x="1475" y="1096" type="line"/>
    </contour>
    <contour>
      <point x="954" y="1133" type="line"/>
      <point x="1240" y="1133" type="line"/>
      <point x="1240" y="0" type="line"/>
      <point x="954" y="0" type="line"/>
    </contour>
    <contour>
      <point x="954" y="1289" type="move" name="top"/>
    </contour>
  </outline>
</glyph>
<glyph name="ngadeva" format="1">
  <advance width="1249"/>
  <unicode hex="0919"/>
  <outline>
    <contour>
      <point x="1149" y="1096" type="line"/>
      <point x="1149" y="1289" type="line"/>
      <point x="1279" y="1289" type="line"/>
      <point x="1279" y="1096" type="line"/>
    </contour>
    <contour>
      <point x="1201" y="809" type="curve" smooth="yes"/>
      <point x="1314" y="809"/>
      <point x="1353" y="741"/>
      <point x="1353" y="678" type="curve" smooth="yes"/>
      <point x="1353" y="616"/>
      <point x="1307" y="547"/>
      <point x="1201" y="547" type="curve" smooth="yes"/>
      <point x="1087" y="547"/>
      <point x="1047" y="617"/>
      <point x="1047" y="678" type="curve" smooth="yes"/>
      <point x="1047" y="740"/>
      <point x="1090" y="809"/>
    </contour>
    <component base="ddadeva"/>
    <contour>
      <point x="517" y="7" type="move" name="btm"/>
    </contour>
    <contour>
      <point x="712" y="1289" type="move" name="top"/>
    </contour>
  </outline>
</glyph>
<glyph name="jadeva" format="1">
  <advance width="1646"/>
  <unicode hex="091C"/>
  <outline>
    <contour>
      <point x="-30" y="1096" type="line"/>
      <point x="-30" y="1289" type="line"/>
      <point x="1676" y="1289" type="line"/>
      <point x="1676" y="1096" type="line"/>
    </contour>
    <contour>
      <point x="739" y="668" type="line"/>
      <point x="765" y="741" type="line"/>
      <point x="889" y="669"/>
      <point x="967" y="559"/>
      <point x="967" y="394" type="curve" smooth="yes"/>
      <point x="967" y="221"/>
      <point x="836" y="78"/>
      <point x="624" y="78" type="curve" smooth="yes"/>
      <point x="398" y="78"/>
      <point x="194" y="210"/>
      <point x="28" y="458" type="curve"/>
      <point x="162" y="652" type="line"/>
      <point x="342" y="398"/>
      <point x="462" y="328"/>
      <point x="568" y="328" type="curve" smooth="yes"/>
      <point x="655" y="328"/>
      <point x="711" y="383"/>
      <point x="711" y="463" type="curve" smooth="yes"/>
      <point x="711" y="562"/>
      <point x="626" y="658"/>
      <point x="452" y="701" type="curve"/>
      <point x="452" y="902" type="line"/>
      <point x="1198" y="902" type="line"/>
      <point x="1198" y="668" type="line"/>
    </contour>
    <contour>
      <point x="1155" y="1133" type="line"/>
      <point x="1441" y="1133" type="line"/>
      <point x="1441" y="0" type="line"/>
      <point x="1155" y="0" type="line"/>
    </contour>
    <contour>
      <point x="1155" y="1289" type="move" name="top"/>
    </contour>
  </outline>
</glyph>
<glyph name="nyadeva" format="1">
  <advance width="1803"/>
  <unicode hex="091E"/>
  <outline>
    <contour>
      <point x="901" y="681" type="line"/>
      <point x="974" y="668"/>
      <point x="1045" y="661"/>
      <point x="1111" y="661" type="curve" smooth="yes"/>
      <point x="1214" y="661"/>
      <point x="1320" y="684"/>
      <point x="1386" y="719" type="curve"/>
      <point x="1386" y="455" type="line"/>
      <point x="1336" y="440"/>
      <point x="1256" y="426"/>
      <point x="1163" y="426" type="curve" smooth="yes"/>
      <point x="1081" y="426"/>
      <point x="954" y="439"/>
      <point x="901" y="452" type="curve"/>
    </contour>
    <contour>
      <point x="1004" y="525" type="curve" smooth="yes"/>
      <point x="1004" y="283"/>
      <point x="830" y="136"/>
      <point x="613" y="136" type="curve" smooth="yes"/>
      <point x="414" y="136"/>
      <point x="235" y="216"/>
      <point x="35" y="397" type="curve"/>
      <point x="130" y="598" type="line"/>
      <point x="308" y="430"/>
      <point x="434" y="370"/>
      <point x="557" y="370" type="curve" smooth="yes"/>
      <point x="689" y="370"/>
      <point x="755" y="449"/>
      <point x="754" y="545" type="curve" smooth="yes"/>
      <point x="754" y="635"/>
      <point x="676" y="706"/>
      <point x="573" y="707" type="curve" smooth="yes"/>
      <point x="487" y="707"/>
      <point x="401" y="669"/>
      <point x="342" y="622" type="curve"/>
      <point x="241" y="825" type="line"/>
      <point x="313" y="879"/>
      <point x="425" y="932"/>
      <point x="566" y="932" type="curve" smooth="yes"/>
      <point x="812" y="932"/>
      <point x="1004" y="771"/>
    </contour>
    <contour>
      <point x="-30" y="1096" type="line"/>
      <point x="-30" y="1289" type="line"/>
      <point x="1833" y="1289" type="line"/>
      <point x="1833" y="1096" type="line"/>
    </contour>
    <contour>
      <point x="1312" y="1133" type="line"/>
      <point x="1598" y="1133" type="line"/>
      <point x="1598" y="0" type="line"/>
      <point x="1312" y="0" type="line"/>
    </contour>
    <contour>
      <point x="1312" y="1289" type="move" name="top"/>
    </contour>
  </outline>
</glyph>
<glyph name="dadeva" format="1">
  <advance width="1200"/>
  <unicode hex="0926"/>
  <outline>
    <contour>
      <point x="-30" y="1096" type="line"/>
      <point x="-30" y="1289" type="line"/>
      <point x="1230" y="1289" type="line"/>
      <point x="1230" y="1096" type="line"/>
    </contour>
    <contour>
      <point x="682" y="177" type="line"/>
      <point x="901" y="247" type="line"/>
      <point x="1120" y="-174" type="line"/>
      <point x="909" y="-262" type="line"/>
    </contour>
    <contour>
      <point x="647" y="78" type="curve" smooth="yes"/>
      <point x="310" y="78"/>
      <point x="84" y="264"/>
      <point x="84" y="523" type="curve" smooth="yes"/>
      <point x="84" y="737"/>
      <point x="233" y="902"/>
      <point x="567" y="902" type="curve" smooth="yes"/>
      <point x="765" y="902" type="line"/>
      <point x="702" y="849" type="line"/>
      <point x="702" y="1131" type="line"/>
      <point x="989" y="1131" type="line"/>
      <point x="989" y="698" type="line"/>
      <point x="646" y="698" type="line"/>
      <point x="435" y="698"/>
      <point x="349" y="610"/>
      <point x="349" y="489" type="curve" smooth="yes"/>
      <point x="349" y="372"/>
      <point x="450" y="283"/>
      <point x="599" y="283" type="curve" smooth="yes"/>
      <point x="684" y="283"/>
      <point x="736" y="287"/>
      <point x="838" y="313" type="curve"/>
      <point x="664" y="213" type="line"/>
      <point x="635" y="265"/>
      <point x="622" y="311"/>
      <point x="622" y="361" type="curve" smooth="yes"/>
      <point x="622" y="418"/>
      <point x="659" y="482"/>
      <point x="785" y="482" type="curve" smooth="yes"/>
      <point x="956" y="482"/>
      <point x="1089" y="398"/>
      <point x="1089" y="297" type="curve" smooth="yes"/>
      <point x="1089" y="188"/>
      <point x="937" y="78"/>
    </contour>
    <contour>
      <point x="865" y="-177" type="move" name="btm"/>
    </contour>
    <contour>
      <point x="664" y="1289" type="move" name="top"/>
    </contour>
  </outline>
</glyph>
<glyph name="padeva" format="1">
  <advance width="1258"/>
  <unicode hex="092A"/>
  <outline>
    <contour>
      <point x="1288" y="1096" type="line"/>
      <point x="-30" y="1096" type="line"/>
      <point x="-30" y="1289" type="line"/>
      <point x="1288" y="1289" type="line"/>
    </contour>
    <contour>
      <point x="412" y="1136" type="line"/>
      <point x="412" y="704" type="line"/>
      <point x="412" y="595"/>
      <point x="465" y="540"/>
      <point x="557" y="540" type="curve" smooth="yes"/>
      <point x="646" y="540"/>
      <point x="725" y="576"/>
      <point x="795" y="658" type="curve"/>
      <point x="795" y="342" type="line"/>
      <point x="739" y="323"/>
      <point x="666" y="309"/>
      <point x="590" y="309" type="curve" smooth="yes"/>
      <point x="312" y="309"/>
      <point x="125" y="472"/>
      <point x="125" y="760" type="curve" smooth="yes"/>
      <point x="125" y="1136" type="line"/>
    </contour>
    <contour>
      <point x="767" y="1133" type="line"/>
      <point x="1054" y="1133" type="line"/>
      <point x="1054" y="0" type="line"/>
      <point x="767" y="0" type="line"/>
    </contour>
    <contour>
      <point x="767" y="1289" type="move" name="top"/>
    </contour>
  </outline>
</glyph>
<glyph name="madeva" format="1">
  <advance width="1344"/>
  <unicode hex="092E"/>
  <outline>
    <contour>
      <point x="-30" y="1096" type="line"/>
      <point x="-30" y="1289" type="line"/>
      <point x="1374" y="1289" type="line"/>
      <point x="1374" y="1096" type="line"/>
    </contour>
    <contour>
      <point x="853" y="1133" type="line"/>
      <point x="1139" y="1133" type="line"/>
      <point x="1139" y="0" type="line"/>
      <point x="853" y="0" type="line"/>
    </contour>
    <contour>
      <point x="60" y="581" type="curve" smooth="yes"/>
      <point x="60" y="640"/>
      <point x="96" y="682"/>
      <point x="171" y="682" type="curve" smooth="yes"/>
      <point x="257" y="682" type="line"/>
      <point x="223" y="652" type="line"/>
      <point x="223" y="1135" type="line"/>
      <point x="509" y="1135" type="line"/>
      <point x="509" y="643" type="line"/>
      <point x="477" y="682" type="line"/>
      <point x="903" y="682" type="line"/>
      <point x="903" y="446" type="line"/>
      <point x="464" y="446" type="line"/>
      <point x="509" y="489" type="line"/>
      <point x="509" y="358" type="line"/>
      <point x="509" y="284"/>
      <point x="481" y="240"/>
      <point x="409" y="240" type="curve" smooth="yes"/>
      <point x="341" y="240"/>
      <point x="245" y="284"/>
      <point x="176" y="354" type="curve" smooth="yes"/>
      <point x="110" y="420"/>
      <point x="60" y="508"/>
    </contour>
    <contour>
      <point x="853" y="1289" type="move" name="top"/>
    </contour>
  </outline>
</glyph>
<glyph name="yadeva" format="1">
  <advance width="1372"/>
  <unicode hex="092F"/>
  <outline>
    <contour>
      <point x="-30" y="1096" type="line"/>
      <point x="-30" y="1289" type="line"/>
      <point x="1402" y="1289" type="line"/>
      <point x="1402" y="1096" type="line"/>
    </contour>
    <contour>
      <point x="339" y="1130" type="line"/>
      <point x="626" y="1130" type="line"/>
      <point x="626" y="952" type="line"/>
      <point x="626" y="739"/>
      <point x="535" y="609"/>
      <point x="308" y="539" type="curve"/>
      <point x="310" y="638" type="line"/>
      <point x="378" y="537"/>
      <point x="473" y="478"/>
      <point x="595" y="478" type="curve" smooth="yes"/>
      <point x="737" y="478"/>
      <point x="861" y="553"/>
      <point x="929" y="684" type="curve"/>
      <point x="928" y="310" type="line"/>
      <point x="866" y="269"/>
      <point x="783" y="246"/>
      <point x="675" y="246" type="curve" smooth="yes"/>
      <point x="407" y="246"/>
      <point x="165" y="409"/>
      <point x="33" y="665" type="curve"/>
      <point x="33" y="672" type="line"/>
      <point x="260" y="747"/>
      <point x="339" y="830"/>
      <point x="339" y="968" type="curve" smooth="yes"/>
    </contour>
    <contour>
      <point x="881" y="1133" type="line"/>
      <point x="1167" y="1133" type="line"/>
      <point x="1167" y="0" type="line"/>
      <point x="881" y="0" type="line"/>
    </contour>
    <contour>
      <point x="881" y="1289" type="move" name="top"/>
    </contour>
  </outline>
</glyph>
<glyph name="sadeva" format="1">
  <advance width="1557"/>
  <unicode hex="0938"/>
  <outline>
    <contour>
      <point x="796" y="85" type="line"/>
      <point x="589" y="-51" type="line"/>
      <point x="100" y="598" type="line"/>
      <point x="55" y="655"/>
      <point x="34" y="702"/>
      <point x="34" y="752" type="curve" smooth="yes"/>
      <point x="34" y="816"/>
      <point x="81" y="873"/>
      <point x="157" y="873" type="curve" smooth="yes"/>
      <point x="213" y="873"/>
      <point x="253" y="842"/>
      <point x="288" y="797" type="curve" smooth="yes"/>
      <point x="403" y="641" type="line"/>
      <point x="394" y="620" type="line"/>
    </contour>
    <contour>
      <point x="254" y="687" type="line"/>
      <point x="396" y="730"/>
      <point x="454" y="805"/>
      <point x="454" y="949" type="curve" smooth="yes"/>
      <point x="454" y="1147" type="line"/>
      <point x="740" y="1147" type="line"/>
      <point x="740" y="905" type="line"/>
      <point x="740" y="718"/>
      <point x="637" y="555"/>
      <point x="409" y="463" type="curve"/>
    </contour>
    <contour>
      <point x="-30" y="1096" type="line"/>
      <point x="-30" y="1289" type="line"/>
      <point x="1587" y="1289" type="line"/>
      <point x="1587" y="1096" type="line"/>
    </contour>
    <contour>
      <point x="506" y="536" type="curve"/>
      <point x="614" y="732" type="line"/>
      <point x="695" y="701"/>
      <point x="783" y="688"/>
      <point x="847" y="688" type="curve" smooth="yes"/>
      <point x="934" y="688"/>
      <point x="1011" y="697"/>
      <point x="1092" y="717" type="curve"/>
      <point x="1092" y="473" type="line"/>
      <point x="1034" y="460"/>
      <point x="976" y="451"/>
      <point x="893" y="451" type="curve" smooth="yes"/>
      <point x="762" y="451"/>
      <point x="640" y="477"/>
    </contour>
    <contour>
      <point x="1066" y="1133" type="line"/>
      <point x="1352" y="1133" type="line"/>
      <point x="1352" y="0" type="line"/>
      <point x="1066" y="0" type="line"/>
    </contour>
    <contour>
      <point x="1066" y="1289" type="move" name="top"/>
    </contour>
  </outline>
</glyph>
<glyph name="viramadeva" format="1">
  <advance width="-1"/>
  <unicode hex="094D"/>
  <outline>
    <contour>
      <point x="-458" y="-62" type="line"/>
      <point x="117" y="-319" type="line"/>
      <point x="30" y="-521" type="line"/>
      <point x="-546" y="-261" type="line"/>
    </contour>
    <contour>
      <point x="-492" y="0" type="move" name="_btm"/>
    </contour>
  </outline>
</glyph>
<glyph name="udattadeva" format="1">
  <advance width="0"/>
  <unicode hex="0951"/>
  <outline>
    <contour>
      <point x="-207" y="1762" type="line"/>
      <point x="-207" y="1401" type="line"/>
      <point x="-493" y="1401" type="line"/>
      <point x="-493" y="1762" type="line"/>
    </contour>
    <contour>
      <point x="-493" y="1289" type="move" name="_top"/>
    </contour>
  </outline>
</glyph>
<glyph name="uevowelsigndevaKSH" format="1">
  <advance width="0"/>
  <unicode hex="0956"/>
  <outline>
    <contour>
      <point x="144" y="-240" type="line"/>
      <point x="17" y="-360"/>
      <point x="-142" y="-420"/>
      <point x="-338" y="-420" type="curve" smooth="yes"/>
      <point x="-529" y="-420"/>
      <point x="-686" y="-361"/>
      <point x="-839" y="-244" type="curve"/>
      <point x="-778" y="-61" type="line"/>
      <point x="-647" y="-163"/>
      <point x="-507" y="-213"/>
      <point x="-339" y="-213" type="curve" smooth="yes"/>
      <point x="-181" y="-213"/>
      <point x="-43" y="-159"/>
      <point x="72" y="-61" type="curve"/>
    </contour>
    <contour>
      <point x="-492" y="0" type="move" name="_btm"/>
    </contour>
  </outline>
</glyph>
<glyph name="onedeva" format="1">
  <advance width="986"/>
  <unicode hex="0967"/>
  <outline>
    <contour>
      <point x="181" y="376" type="line"/>
      <point x="504" y="683" type="line"/>
      <point x="603" y="778"/>
      <point x="648" y="851"/>
      <point x="648" y="926" type="curve" smooth="yes"/>
      <point x="648" y="1006"/>
      <point x="584" y="1076"/>
      <point x="493" y="1076" type="curve" smooth="yes"/>
      <point x="406" y="1076"/>
      <point x="345" y="1014"/>
      <point x="345" y="934" type="curve" smooth="yes"/>
      <point x="345" y="841"/>
      <point x="443" y="757"/>
      <point x="640" y="733" type="curve"/>
      <point x="507" y="547" type="line"/>
      <point x="195" y="618"/>
      <point x="81" y="786"/>
      <point x="81" y="962" type="curve" smooth="yes"/>
      <point x="81" y="1137"/>
      <point x="215" y="1306"/>
      <point x="486" y="1306" type="curve" smooth="yes"/>
      <point x="757" y="1306"/>
      <point x="907" y="1116"/>
      <point x="907" y="930" type="curve" smooth="yes"/>
      <point x="907" y="796"/>
      <point x="856" y="701"/>
      <point x="758" y="598" type="curve" smooth="yes"/>
      <point x="498" y="329" type="line"/>
      <point x="462" y="434" type="line"/>
      <point x="737" y="208" type="line"/>
      <point x="827" y="133"/>
      <point x="858" y="65"/>
      <point x="858" y="0" type="curve" smooth="yes"/>
      <point x="859" y="-64"/>
      <point x="834" y="-119"/>
      <point x="793" y="-177" type="curve"/>
      <point x="538" y="-104" type="line"/>
      <point x="560" y="-71"/>
      <point x="573" y="-44"/>
      <point x="573" y="-6" type="curve" smooth="yes"/>
      <point x="573" y="33"/>
      <point x="548" y="64"/>
      <point x="507" y="97" type="curve" smooth="yes"/>
      <point x="181" y="349" type="line"/>
    </contour>
  </outline>
</glyph>
<glyph name="threedeva" format="1">
  <advance width="1007"/>
  <unicode hex="0969"/>
  <outline>
    <contour>
      <point x="308" y="129" type="line"/>
      <point x="528" y="199" type="line"/>
      <point x="689" y="-126" type="line"/>
      <point x="473" y="-212" type="line"/>
    </contour>
    <contour>
      <point x="713" y="661" type="curve"/>
      <point x="483" y="755" type="line"/>
      <point x="556" y="818"/>
      <point x="586" y="874"/>
      <point x="586" y="948" type="curve" smooth="yes"/>
      <point x="586" y="1015"/>
      <point x="532" y="1076"/>
      <point x="431" y="1076" type="curve" smooth="yes"/>
      <point x="332" y="1076"/>
      <point x="235" y="1040"/>
      <point x="156" y="995" type="curve"/>
      <point x="68" y="1219" type="line"/>
      <point x="177" y="1269"/>
      <point x="283" y="1300"/>
      <point x="444" y="1300" type="curve" smooth="yes"/>
      <point x="718" y="1300"/>
      <point x="846" y="1145"/>
      <point x="846" y="962" type="curve" smooth="yes"/>
      <point x="846" y="853"/>
      <point x="801" y="741"/>
    </contour>
    <contour>
      <point x="479" y="830" type="curve" smooth="yes"/>
      <point x="763" y="830"/>
      <point x="920" y="634"/>
      <point x="920" y="421" type="curve" smooth="yes"/>
      <point x="920" y="202"/>
      <point x="751" y="41"/>
      <point x="429" y="41" type="curve" smooth="yes"/>
      <point x="206" y="41"/>
      <point x="110" y="98"/>
      <point x="110" y="179" type="curve" smooth="yes"/>
      <point x="110" y="285"/>
      <point x="235" y="393"/>
      <point x="353" y="393" type="curve" smooth="yes"/>
      <point x="423" y="393"/>
      <point x="488" y="348"/>
      <point x="526" y="224" type="curve"/>
      <point x="266" y="276" type="line"/>
      <point x="333" y="265"/>
      <point x="395" y="266"/>
      <point x="435" y="266" type="curve" smooth="yes"/>
      <point x="572" y="266"/>
      <point x="658" y="343"/>
      <point x="658" y="431" type="curve" smooth="yes"/>
      <point x="658" y="519"/>
      <point x="601" y="592"/>
      <point x="476" y="592" type="curve" smooth="yes"/>
      <point x="392" y="592"/>
      <point x="319" y="575"/>
      <point x="249" y="549" type="curve"/>
      <point x="184" y="781" type="line"/>
      <point x="269" y="808"/>
      <point x="377" y="830"/>
    </contour>
  </outline>
</glyph>
<glyph name="abbreviationsigndeva" format="1">
  <advance width="963"/>
  <unicode hex="0970"/>
  <outline>
    <contour>
      <point x="487" y="412" type="curve" smooth="yes"/>
      <point x="266" y="412"/>
      <point x="118" y="566"/>
      <point x="118" y="755" type="curve" smooth="yes"/>
      <point x="118" y="940"/>
      <point x="262" y="1093"/>
      <point x="484" y="1093" type="curve" smooth="yes"/>
      <point x="706" y="1093"/>
      <point x="851" y="938"/>
      <point x="851" y="751" type="curve" smooth="yes"/>
      <point x="851" y="566"/>
      <point x="708" y="412"/>
    </contour>
    <contour>
      <point x="484" y="908" type="curve" smooth="yes"/>
      <point x="403" y="908"/>
      <point x="333" y="849"/>
      <point x="333" y="754" type="curve" smooth="yes"/>
      <point x="333" y="649"/>
      <point x="404" y="597"/>
      <point x="485" y="597" type="curve" smooth="yes"/>
      <point x="565" y="597"/>
      <point x="635" y="650"/>
      <point x="635" y="753" type="curve" smooth="yes"/>
      <point x="635" y="849"/>
      <point x="564" y="908"/>
    </contour>
  </outline>
</glyph>
<glyph name="emdash.deva" format="1">
  <advance width="1915"/>
  <unicode hex="2014"/>
  <outline>
    <contour>
      <point x="91" y="392" type="line"/>
      <point x="91" y="599" type="line"/>
      <point x="1792" y="599" type="line"/>
      <point x="1792" y="392" type="line"/>
    </contour>
  </outline>
</glyph>
<glyph name="davadeva" format="1">
  <advance width="1198"/>
  <outline>
    <contour>
      <point x="489" y="141" type="line"/>
      <point x="368" y="89"/>
      <point x="323" y="1"/>
      <point x="325" y="-63" type="curve" smooth="yes"/>
      <point x="327" y="-133"/>
      <point x="372" y="-174"/>
      <point x="451" y="-174" type="curve" smooth="yes"/>
      <point x="583" y="-174"/>
      <point x="715" y="-25"/>
      <point x="709" y="194" type="curve"/>
      <point x="879" y="-122" type="line"/>
      <point x="786" y="-282"/>
      <point x="636" y="-380"/>
      <point x="452" y="-380" type="curve" smooth="yes"/>
      <point x="226" y="-380"/>
      <point x="92" y="-216"/>
      <point x="92" y="-58" type="curve" smooth="yes"/>
      <point x="92" y="81"/>
      <point x="166" y="209"/>
      <point x="328" y="300" type="curve"/>
    </contour>
    <contour>
      <point x="-30" y="1096" type="line"/>
      <point x="-30" y="1289" type="line"/>
      <point x="1230" y="1289" type="line"/>
      <point x="1230" y="1096" type="line"/>
    </contour>
    <contour>
      <point x="683" y="174" type="line"/>
      <point x="901" y="247" type="line"/>
      <point x="1161" y="-252" type="line"/>
      <point x="951" y="-342" type="line"/>
    </contour>
    <contour>
      <point x="647" y="78" type="curve" smooth="yes"/>
      <point x="310" y="78"/>
      <point x="84" y="264"/>
      <point x="84" y="523" type="curve" smooth="yes"/>
      <point x="84" y="737"/>
      <point x="233" y="902"/>
      <point x="567" y="902" type="curve" smooth="yes"/>
      <point x="765" y="902" type="line"/>
      <point x="702" y="849" type="line"/>
      <point x="702" y="1131" type="line"/>
      <point x="989" y="1131" type="line"/>
      <point x="989" y="698" type="line"/>
      <point x="646" y="698" type="line"/>
      <point x="435" y="698"/>
      <point x="351" y="610"/>
      <point x="351" y="490" type="curve" smooth="yes"/>
      <point x="351" y="373"/>
      <point x="450" y="283"/>
      <point x="599" y="283" type="curve" smooth="yes"/>
      <point x="684" y="283"/>
      <point x="730" y="286"/>
      <point x="838" y="313" type="curve"/>
      <point x="666" y="214" type="line"/>
      <point x="634" y="264"/>
      <point x="622" y="316"/>
      <point x="622" y="361" type="curve" smooth="yes"/>
      <point x="622" y="418"/>
      <point x="659" y="482"/>
      <point x="785" y="482" type="curve" smooth="yes"/>
      <point x="956" y="482"/>
      <point x="1089" y="398"/>
      <point x="1089" y="297" type="curve" smooth="yes"/>
      <point x="1089" y="188"/>
      <point x="937" y="78"/>
    </contour>
    <contour>
      <point x="651" y="-422" type="move" name="btm"/>
    </contour>
    <contour>
      <point x="660" y="1289" type="move" name="top"/>
    </contour>
  </outline>
</glyph>
<glyph name="eshortvowelsignrephdeva" format="1">
  <advance width="0"/>
  <outline>
    <contour>
      <point x="-395" y="1244" type="line"/>
      <point x="-449" y="1319"/>
      <point x="-482" y="1418"/>
      <point x="-482" y="1515" type="curve" smooth="yes"/>
      <point x="-482" y="1667"/>
      <point x="-350" y="1808"/>
      <point x="-115" y="1808" type="curve" smooth="yes"/>
      <point x="-51" y="1808"/>
      <point x="-2" y="1802"/>
      <point x="48" y="1789" type="curve"/>
      <point x="38" y="1614" type="line"/>
      <point x="0" y="1622"/>
      <point x="-29" y="1626"/>
      <point x="-80" y="1626" type="curve" smooth="yes"/>
      <point x="-175" y="1626"/>
      <point x="-238" y="1551"/>
      <point x="-238" y="1458" type="curve" smooth="yes"/>
      <point x="-238" y="1398"/>
      <point x="-238" y="1328"/>
      <point x="-238" y="1244" type="curve"/>
    </contour>
    <component base="eshortvowelsigndeva"/>
    <contour>
      <point x="-493" y="1289" type="move" name="_top"/>
    </contour>
  </outline>
</glyph>
<glyph name="hauudeva" format="1">
  <advance width="1217"/>
  <outline>
    <contour>
      <point x="727" y="1114" type="line"/>
      <point x="1013" y="1114" type="line"/>
      <point x="1013" y="745" type="line"/>
      <point x="490" y="745" type="line"/>
      <point x="384" y="745"/>
      <point x="343" y="701"/>
      <point x="343" y="643" type="curve" smooth="yes"/>
      <point x="343" y="585"/>
      <point x="395" y="544"/>
      <point x="491" y="519" type="curve"/>
      <point x="306" y="370" type="line"/>
      <point x="145" y="461"/>
      <point x="67" y="568"/>
      <point x="67" y="697" type="curve" smooth="yes"/>
      <point x="67" y="834"/>
      <point x="170" y="939"/>
      <point x="387" y="939" type="curve" smooth="yes"/>
      <point x="766" y="939" type="line"/>
      <point x="727" y="890" type="line"/>
    </contour>
    <contour>
      <point x="649" y="585" type="curve" smooth="yes"/>
      <point x="968" y="585"/>
      <point x="1117" y="426"/>
      <point x="1117" y="253" type="curve" smooth="yes"/>
      <point x="1117" y="173"/>
      <point x="1097" y="113"/>
      <point x="1062" y="45" type="curve"/>
      <point x="829" y="89" type="line"/>
      <point x="855" y="137"/>
      <point x="868" y="178"/>
      <point x="868" y="231" type="curve" smooth="yes"/>
      <point x="868" y="301"/>
      <point x="807" y="369"/>
      <point x="670" y="369" type="curve" smooth="yes"/>
      <point x="530" y="370"/>
      <point x="442" y="268"/>
      <point x="442" y="168" type="curve" smooth="yes"/>
      <point x="442" y="31"/>
      <point x="563" y="-51"/>
      <point x="794" y="-98" type="curve"/>
      <point x="717" y="-289" type="line"/>
      <point x="412" y="-229"/>
      <point x="173" y="-79"/>
      <point x="173" y="201" type="curve" smooth="yes"/>
      <point x="173" y="405"/>
      <point x="334" y="585"/>
    </contour>
    <contour>
      <point x="1247" y="1096" type="line"/>
      <point x="-30" y="1096" type="line"/>
      <point x="-30" y="1289" type="line"/>
      <point x="1247" y="1289" type="line"/>
    </contour>
    <component base="uuvowelsigndeva" xOffset="1018" yOffset="-108"/>
  </outline>
</glyph>
<glyph name="jajadeva" format="1">
  <advance width="2360"/>
  <outline>
    <contour>
      <point x="-30" y="1096" type="line"/>
      <point x="-30" y="1289" type="line"/>
      <point x="1110" y="1289" type="line"/>
      <point x="1110" y="1096" type="line"/>
    </contour>
    <contour>
      <point x="738" y="668" type="line"/>
      <point x="764" y="741" type="line"/>
      <point x="888" y="669"/>
      <point x="966" y="559"/>
      <point x="966" y="394" type="curve" smooth="yes"/>
      <point x="966" y="221"/>
      <point x="835" y="78"/>
      <point x="623" y="78" type="curve" smooth="yes"/>
      <point x="397" y="78"/>
      <point x="192" y="210"/>
      <point x="27" y="458" type="curve"/>
      <point x="161" y="652" type="line"/>
      <point x="341" y="398"/>
      <point x="461" y="328"/>
      <point x="567" y="328" type="curve" smooth="yes"/>
      <point x="654" y="328"/>
      <point x="710" y="383"/>
      <point x="710" y="463" type="curve" smooth="yes"/>
      <point x="710" y="562"/>
      <point x="625" y="658"/>
      <point x="451" y="701" type="curve"/>
      <point x="451" y="902" type="line"/>
      <point x="1330" y="902" type="line"/>
      <point x="1330" y="668" type="line"/>
    </contour>
    <component base="jadeva" xOffset="714"/>
    <contour>
      <point x="1869" y="1289" type="move" name="top"/>
    </contour>
  </outline>
</glyph>
<glyph name="jathadeva" format="1">
  <advance width="2384"/>
  <outline>
    <contour>
      <point x="-30" y="1096" type="line"/>
      <point x="-30" y="1289" type="line"/>
      <point x="1096" y="1289" type="line"/>
      <point x="1096" y="1096" type="line"/>
    </contour>
    <contour>
      <point x="730" y="549" type="line"/>
      <point x="756" y="623" type="line"/>
      <point x="880" y="551"/>
      <point x="958" y="443"/>
      <point x="958" y="282" type="curve" smooth="yes"/>
      <point x="958" y="109"/>
      <point x="827" y="-33"/>
      <point x="615" y="-33" type="curve" smooth="yes"/>
      <point x="396" y="-33"/>
      <point x="194" y="96"/>
      <point x="22" y="351" type="curve"/>
      <point x="153" y="540" type="line"/>
      <point x="333" y="285"/>
      <point x="457" y="212"/>
      <point x="562" y="212" type="curve" smooth="yes"/>
      <point x="649" y="212"/>
      <point x="705" y="266"/>
      <point x="705" y="346" type="curve" smooth="yes"/>
      <point x="705" y="432"/>
      <point x="624" y="539"/>
      <point x="443" y="583" type="curve"/>
      <point x="443" y="784" type="line"/>
      <point x="1339" y="784" type="line"/>
      <point x="1333" y="549" type="line"/>
    </contour>
    <component base="thadeva" xOffset="936"/>
  </outline>
</glyph>
<glyph name="khaprehalfdeva" format="1">
  <advance width="1325"/>
  <outline>
    <contour>
      <point x="246" y="702" type="line"/>
      <point x="397" y="749"/>
      <point x="435" y="828"/>
      <point x="435" y="959" type="curve" smooth="yes"/>
      <point x="435" y="1169" type="line"/>
      <point x="721" y="1169" type="line"/>
      <point x="721" y="943" type="line"/>
      <point x="721" y="742"/>
      <point x="670" y="565"/>
      <point x="414" y="449" type="curve"/>
    </contour>
    <contour>
      <point x="-30" y="1096" type="line"/>
      <point x="-30" y="1289" type="line"/>
      <point x="1355" y="1289" type="line"/>
      <point x="1355" y="1096" type="line"/>
    </contour>
    <contour>
      <point x="344" y="626" type="line"/>
      <point x="385" y="554"/>
      <point x="440" y="482"/>
      <point x="496" y="426" type="curve" smooth="yes"/>
      <point x="650" y="273"/>
      <point x="821" y="200"/>
      <point x="1049" y="200" type="curve" smooth="yes"/>
      <point x="1270" y="200"/>
      <point x="1485" y="286"/>
      <point x="1632" y="457" type="curve"/>
      <point x="1761" y="304" type="line"/>
      <point x="1588" y="134"/>
      <point x="1368" y="1"/>
      <point x="1028" y="1" type="curve" smooth="yes"/>
      <point x="763" y="1"/>
      <point x="487" y="104"/>
      <point x="308" y="283" type="curve" smooth="yes"/>
      <point x="201" y="390"/>
      <point x="116" y="515"/>
      <point x="71" y="608" type="curve" smooth="yes"/>
      <point x="51" y="651"/>
      <point x="39" y="689"/>
      <point x="39" y="719" type="curve" smooth="yes"/>
      <point x="39" y="788"/>
      <point x="94" y="844"/>
      <point x="165" y="844" type="curve" smooth="yes"/>
      <point x="234" y="844"/>
      <point x="274" y="813"/>
      <point x="330" y="739" type="curve" smooth="yes"/>
      <point x="383" y="662" type="line"/>
    </contour>
    <contour>
      <point x="1293" y="670" type="curve" smooth="yes"/>
      <point x="1293" y="727"/>
      <point x="1222" y="774"/>
      <point x="1115" y="774" type="curve" smooth="yes"/>
      <point x="1020" y="774"/>
      <point x="968" y="712"/>
      <point x="968" y="652" type="curve" smooth="yes"/>
      <point x="968" y="586"/>
      <point x="1019" y="536"/>
      <point x="1095" y="536" type="curve" smooth="yes"/>
      <point x="1210" y="536"/>
      <point x="1293" y="602"/>
    </contour>
    <contour>
      <point x="1493" y="644" type="curve" smooth="yes"/>
      <point x="1493" y="481"/>
      <point x="1329" y="334"/>
      <point x="1121" y="334" type="curve" smooth="yes"/>
      <point x="900" y="334"/>
      <point x="737" y="499"/>
      <point x="737" y="682" type="curve" smooth="yes"/>
      <point x="737" y="836"/>
      <point x="844" y="964"/>
      <point x="1063" y="964" type="curve" smooth="yes"/>
      <point x="1341" y="964"/>
      <point x="1493" y="814"/>
    </contour>
  </outline>
</glyph>
<glyph name="laprehalfdeva" format="1">
  <advance width="1071"/>
  <outline>
    <contour>
      <point x="-30" y="1096" type="line"/>
      <point x="-30" y="1289" type="line"/>
      <point x="1101" y="1289" type="line"/>
      <point x="1101" y="1096" type="line"/>
    </contour>
    <contour>
      <point x="986" y="615" type="curve"/>
      <point x="809" y="475" type="line"/>
      <point x="724" y="603"/>
      <point x="637" y="661"/>
      <point x="540" y="661" type="curve" smooth="yes"/>
      <point x="416" y="661"/>
      <point x="344" y="576"/>
      <point x="344" y="469" type="curve" smooth="yes"/>
      <point x="344" y="346"/>
      <point x="416" y="244"/>
      <point x="548" y="111" type="curve"/>
      <point x="350" y="-3" type="line"/>
      <point x="203" y="142"/>
      <point x="84" y="336"/>
      <point x="84" y="524" type="curve" smooth="yes"/>
      <point x="84" y="738"/>
      <point x="236" y="903"/>
      <point x="481" y="903" type="curve" smooth="yes"/>
      <point x="689" y="903"/>
      <point x="861" y="800"/>
    </contour>
    <contour>
      <point x="1291" y="838" type="line"/>
      <point x="1356" y="591" type="line"/>
      <point x="722" y="216" type="line"/>
      <point x="565" y="405" type="line"/>
    </contour>
  </outline>
</glyph>
<glyph name="onedevaNEP" format="1">
  <advance width="1044"/>
  <outline>
    <contour>
      <point x="642" y="892" type="line"/>
      <point x="642" y="1008"/>
      <point x="576" y="1085"/>
      <point x="478" y="1085" type="curve" smooth="yes"/>
      <point x="388" y="1085"/>
      <point x="324" y="1015"/>
      <point x="324" y="929" type="curve" smooth="yes"/>
      <point x="324" y="828"/>
      <point x="399" y="760"/>
      <point x="514" y="760" type="curve" smooth="yes"/>
      <point x="606" y="760"/>
      <point x="681" y="787"/>
      <point x="751" y="832" type="curve"/>
      <point x="783" y="608" type="line"/>
      <point x="711" y="562"/>
      <point x="637" y="534"/>
      <point x="510" y="534" type="curve" smooth="yes"/>
      <point x="261" y="534"/>
      <point x="74" y="714"/>
      <point x="74" y="937" type="curve" smooth="yes"/>
      <point x="74" y="1134"/>
      <point x="218" y="1304"/>
      <point x="473" y="1304" type="curve" smooth="yes"/>
      <point x="743" y="1304"/>
      <point x="911" y="1126"/>
      <point x="911" y="861" type="curve" smooth="yes"/>
      <point x="911" y="50" type="line"/>
      <point x="642" y="50" type="line"/>
    </contour>
  </outline>
</glyph>
<glyph name="paprehalfdeva" format="1">
  <advance width="680"/>
  <outline>
    <contour>
      <point x="710" y="1096" type="line"/>
      <point x="-30" y="1096" type="line"/>
      <point x="-30" y="1289" type="line"/>
      <point x="710" y="1289" type="line"/>
    </contour>
    <contour>
      <point x="412" y="1187" type="line"/>
      <point x="412" y="704" type="line"/>
      <point x="412" y="595"/>
      <point x="465" y="540"/>
      <point x="569" y="540" type="curve" smooth="yes"/>
      <point x="676" y="540"/>
      <point x="804" y="579"/>
      <point x="914" y="662" type="curve"/>
      <point x="1043" y="452" type="line"/>
      <point x="905" y="363"/>
      <point x="756" y="310"/>
      <point x="588" y="310" type="curve" smooth="yes"/>
      <point x="312" y="310"/>
      <point x="125" y="472"/>
      <point x="125" y="760" type="curve" smooth="yes"/>
      <point x="125" y="1187" type="line"/>
    </contour>
  </outline>
</glyph>
<glyph name="phaprehalfdeva" format="1">
  <advance width="1348"/>
  <outline>
    <contour>
      <point x="985" y="358" type="curve"/>
      <point x="973" y="734" type="line"/>
      <point x="1020" y="762"/>
      <point x="1104" y="794"/>
      <point x="1227" y="794" type="curve" smooth="yes"/>
      <point x="1383" y="794"/>
      <point x="1528" y="752"/>
      <point x="1668" y="640" type="curve"/>
      <point x="1605" y="448" type="line"/>
      <point x="1482" y="528"/>
      <point x="1395" y="560"/>
      <point x="1280" y="560" type="curve" smooth="yes"/>
      <point x="1166" y="560"/>
      <point x="1052" y="495"/>
    </contour>
    <contour>
      <point x="419" y="1187" type="line"/>
      <point x="419" y="728" type="line"/>
      <point x="419" y="620"/>
      <point x="472" y="565"/>
      <point x="565" y="565" type="curve" smooth="yes"/>
      <point x="645" y="565"/>
      <point x="720" y="599"/>
      <point x="789" y="665" type="curve"/>
      <point x="789" y="365" type="line"/>
      <point x="733" y="345"/>
      <point x="676" y="335"/>
      <point x="602" y="335" type="curve" smooth="yes"/>
      <point x="315" y="335"/>
      <point x="133" y="498"/>
      <point x="133" y="793" type="curve" smooth="yes"/>
      <point x="133" y="1187" type="line"/>
    </contour>
    <contour>
      <point x="-30" y="1096" type="line"/>
      <point x="-30" y="1289" type="line"/>
      <point x="1378" y="1289" type="line"/>
      <point x="1378" y="1096" type="line"/>
    </contour>
    <contour>
      <point x="760" y="1133" type="line"/>
      <point x="1046" y="1133" type="line"/>
      <point x="1046" y="0" type="line"/>
      <point x="760" y="0" type="line"/>
    </contour>
  </outline>
</glyph>
<glyph name="rvocalicvowelsignlowdeva" format="1">
  <advance width="0"/>
  <outline>
    <contour>
      <point x="-126" y="-455" type="line"/>
      <point x="-199" y="-479"/>
      <point x="-271" y="-492"/>
      <point x="-359" y="-492" type="curve" smooth="yes"/>
      <point x="-564" y="-492"/>
      <point x="-738" y="-389"/>
      <point x="-738" y="-216" type="curve" smooth="yes"/>
      <point x="-738" y="-69"/>
      <point x="-596" y="41"/>
      <point x="-372" y="41" type="curve" smooth="yes"/>
      <point x="-313" y="41"/>
      <point x="-267" y="39"/>
      <point x="-204" y="34" type="curve"/>
      <point x="-204" y="-118" type="line"/>
      <point x="-239" y="-118"/>
      <point x="-288" y="-118"/>
      <point x="-324" y="-118" type="curve" smooth="yes"/>
      <point x="-448" y="-118"/>
      <point x="-504" y="-171"/>
      <point x="-504" y="-233" type="curve" smooth="yes"/>
      <point x="-504" y="-286"/>
      <point x="-456" y="-328"/>
      <point x="-364" y="-328" type="curve" smooth="yes"/>
      <point x="-299" y="-328"/>
      <point x="-241" y="-316"/>
      <point x="-157" y="-285" type="curve"/>
    </contour>
    <contour>
      <point x="-420" y="0" type="move" name="_btm"/>
    </contour>
  </outline>
</glyph>
<glyph name="shacadeva" format="1">
  <advance width="1576"/>
  <outline>
    <contour>
      <point x="186" y="372" type="line"/>
      <point x="61" y="579" type="line"/>
      <point x="346" y="731" type="line"/>
      <point x="575" y="852"/>
      <point x="638" y="922"/>
      <point x="638" y="1000" type="curve" smooth="yes"/>
      <point x="638" y="1063"/>
      <point x="594" y="1109"/>
      <point x="530" y="1109" type="curve" smooth="yes"/>
      <point x="452" y="1109"/>
      <point x="414" y="1063"/>
      <point x="414" y="1002" type="curve" smooth="yes"/>
      <point x="414" y="877"/>
      <point x="639" y="770"/>
      <point x="1232" y="705" type="curve"/>
      <point x="1172" y="507" type="line"/>
      <point x="419" y="568"/>
      <point x="163" y="790"/>
      <point x="163" y="1037" type="curve" smooth="yes"/>
      <point x="163" y="1184"/>
      <point x="281" y="1320"/>
      <point x="508" y="1320" type="curve" smooth="yes"/>
      <point x="742" y="1320"/>
      <point x="873" y="1173"/>
      <point x="873" y="996" type="curve" smooth="yes"/>
      <point x="873" y="818"/>
      <point x="749" y="673"/>
      <point x="468" y="524" type="curve" smooth="yes"/>
    </contour>
    <contour>
      <point x="1081" y="1133" type="line"/>
      <point x="1368" y="1133" type="line"/>
      <point x="1368" y="-276" type="line"/>
      <point x="1081" y="-276" type="line"/>
    </contour>
    <contour>
      <point x="1116" y="349" type="curve"/>
      <point x="1242" y="52" type="line"/>
      <point x="1162" y="-75"/>
      <point x="1043" y="-167"/>
      <point x="867" y="-167" type="curve" smooth="yes"/>
      <point x="685" y="-167"/>
      <point x="549" y="-41"/>
      <point x="549" y="128" type="curve" smooth="yes"/>
      <point x="549" y="244"/>
      <point x="617" y="354"/>
      <point x="779" y="433" type="curve"/>
      <point x="882" y="292" type="line"/>
      <point x="806" y="254"/>
      <point x="773" y="194"/>
      <point x="773" y="140" type="curve" smooth="yes"/>
      <point x="773" y="80"/>
      <point x="811" y="40"/>
      <point x="875" y="40" type="curve" smooth="yes"/>
      <point x="979" y="40"/>
      <point x="1104" y="153"/>
    </contour>
    <contour>
      <point x="1606" y="1096" type="line"/>
      <point x="970" y="1096" type="line"/>
      <point x="970" y="1289" type="line"/>
      <point x="1606" y="1289" type="line"/>
    </contour>
    <contour>
      <point x="392" y="14" type="line"/>
      <point x="277" y="187" type="line"/>
      <point x="811" y="482" type="line"/>
      <point x="921" y="314" type="line"/>
    </contour>
    <contour>
      <point x="1081" y="-276" type="move" name="btm"/>
    </contour>
    <contour>
      <point x="1081" y="1289" type="move" name="top"/>
    </contour>
  </outline>
</glyph>
<glyph name="shanadeva" format="1">
  <advance width="1576"/>
  <outline>
    <contour>
      <point x="186" y="372" type="line"/>
      <point x="61" y="579" type="line"/>
      <point x="346" y="731" type="line"/>
      <point x="575" y="852"/>
      <point x="638" y="922"/>
      <point x="638" y="1000" type="curve" smooth="yes"/>
      <point x="638" y="1063"/>
      <point x="594" y="1109"/>
      <point x="530" y="1109" type="curve" smooth="yes"/>
      <point x="452" y="1109"/>
      <point x="414" y="1063"/>
      <point x="414" y="1002" type="curve" smooth="yes"/>
      <point x="414" y="877"/>
      <point x="639" y="770"/>
      <point x="1232" y="705" type="curve"/>
      <point x="1172" y="507" type="line"/>
      <point x="419" y="568"/>
      <point x="163" y="790"/>
      <point x="163" y="1037" type="curve" smooth="yes"/>
      <point x="163" y="1184"/>
      <point x="281" y="1320"/>
      <point x="508" y="1320" type="curve" smooth="yes"/>
      <point x="742" y="1320"/>
      <point x="873" y="1173"/>
      <point x="873" y="996" type="curve" smooth="yes"/>
      <point x="873" y="818"/>
      <point x="749" y="673"/>
      <point x="468" y="524" type="curve" smooth="yes"/>
    </contour>
    <contour>
      <point x="1108" y="630" type="line"/>
      <point x="1218" y="429" type="line"/>
      <point x="692" y="122" type="line"/>
      <point x="710" y="191" type="line"/>
      <point x="829" y="-12" type="line"/>
      <point x="844" y="-39"/>
      <point x="851" y="-57"/>
      <point x="851" y="-79" type="curve" smooth="yes"/>
      <point x="851" y="-120"/>
      <point x="826" y="-150"/>
      <point x="771" y="-150" type="curve" smooth="yes"/>
      <point x="689" y="-150"/>
      <point x="563" y="-80"/>
      <point x="471" y="11" type="curve" smooth="yes"/>
      <point x="418" y="64"/>
      <point x="386" y="115"/>
      <point x="386" y="159" type="curve" smooth="yes"/>
      <point x="386" y="207"/>
      <point x="409" y="240"/>
      <point x="475" y="275" type="curve" smooth="yes"/>
    </contour>
    <contour>
      <point x="1081" y="1133" type="line"/>
      <point x="1368" y="1133" type="line"/>
      <point x="1368" y="0" type="line"/>
      <point x="1081" y="0" type="line"/>
    </contour>
    <contour>
      <point x="1606" y="1096" type="line"/>
      <point x="970" y="1096" type="line"/>
      <point x="970" y="1289" type="line"/>
      <point x="1606" y="1289" type="line"/>
    </contour>
    <contour>
      <point x="1081" y="1289" type="move" name="top"/>
    </contour>
  </outline>
</glyph>
<glyph name="shavadeva" format="1">
  <advance width="1576"/>
  <outline>
    <contour>
      <point x="186" y="372" type="line"/>
      <point x="61" y="579" type="line"/>
      <point x="346" y="731" type="line"/>
      <point x="575" y="852"/>
      <point x="638" y="922"/>
      <point x="638" y="1000" type="curve" smooth="yes"/>
      <point x="638" y="1063"/>
      <point x="594" y="1109"/>
      <point x="530" y="1109" type="curve" smooth="yes"/>
      <point x="452" y="1109"/>
      <point x="414" y="1063"/>
      <point x="414" y="1002" type="curve" smooth="yes"/>
      <point x="414" y="877"/>
      <point x="639" y="770"/>
      <point x="1232" y="705" type="curve"/>
      <point x="1172" y="507" type="line"/>
      <point x="419" y="568"/>
      <point x="163" y="790"/>
      <point x="163" y="1037" type="curve" smooth="yes"/>
      <point x="163" y="1184"/>
      <point x="281" y="1320"/>
      <point x="508" y="1320" type="curve" smooth="yes"/>
      <point x="742" y="1320"/>
      <point x="873" y="1173"/>
      <point x="873" y="996" type="curve" smooth="yes"/>
      <point x="873" y="818"/>
      <point x="749" y="673"/>
      <point x="468" y="524" type="curve" smooth="yes"/>
    </contour>
    <contour>
      <point x="1081" y="1133" type="line"/>
      <point x="1368" y="1133" type="line"/>
      <point x="1368" y="-275" type="line"/>
      <point x="1081" y="-275" type="line"/>
    </contour>
    <contour>
      <point x="1606" y="1096" type="line"/>
      <point x="970" y="1096" type="line"/>
      <point x="970" y="1289" type="line"/>
      <point x="1606" y="1289" type="line"/>
    </contour>
    <contour>
      <point x="1113" y="142" type="curve"/>
      <point x="1113" y="-122" type="line"/>
      <point x="1048" y="-160"/>
      <point x="963" y="-181"/>
      <point x="870" y="-181" type="curve" smooth="yes"/>
      <point x="607" y="-181"/>
      <point x="446" y="-18"/>
      <point x="446" y="160" type="curve" smooth="yes"/>
      <point x="446" y="321"/>
      <point x="576" y="447"/>
      <point x="803" y="447" type="curve" smooth="yes"/>
      <point x="951" y="447"/>
      <point x="1070" y="414"/>
      <point x="1162" y="369" type="curve"/>
      <point x="1159" y="174" type="line"/>
      <point x="1061" y="231"/>
      <point x="970" y="261"/>
      <point x="864" y="261" type="curve" smooth="yes"/>
      <point x="746" y="261"/>
      <point x="692" y="202"/>
      <point x="692" y="129" type="curve" smooth="yes"/>
      <point x="692" y="57"/>
      <point x="756" y="11"/>
      <point x="836" y="11" type="curve" smooth="yes"/>
      <point x="941" y="11"/>
      <point x="1025" y="52"/>
    </contour>
    <contour>
      <point x="1081" y="-276" type="move" name="btm"/>
    </contour>
    <contour>
      <point x="1081" y="1289" type="move" name="top"/>
    </contour>
  </outline>
</glyph>
<glyph name="ssatthadeva" format="1">
  <advance width="1294"/>
  <outline>
    <contour>
      <point x="903" y="628" type="line"/>
      <point x="786" y="540" type="line"/>
      <point x="376" y="1087" type="line"/>
      <point x="493" y="1175" type="line"/>
    </contour>
    <contour>
      <point x="1324" y="1096" type="line"/>
      <point x="-30" y="1096" type="line"/>
      <point x="-30" y="1289" type="line"/>
      <point x="1324" y="1289" type="line"/>
    </contour>
    <contour>
      <point x="841" y="801" type="curve" smooth="yes"/>
      <point x="841" y="1133" type="line"/>
      <point x="1121" y="1133" type="line"/>
      <point x="1121" y="786" type="line"/>
      <point x="1121" y="554"/>
      <point x="973" y="389"/>
      <point x="653" y="389" type="curve" smooth="yes"/>
      <point x="353" y="389"/>
      <point x="142" y="546"/>
      <point x="142" y="833" type="curve" smooth="yes"/>
      <point x="142" y="1187" type="line"/>
      <point x="422" y="1187" type="line"/>
      <point x="422" y="767" type="line"/>
      <point x="422" y="664"/>
      <point x="523" y="614"/>
      <point x="613" y="614" type="curve" smooth="yes"/>
      <point x="754" y="614"/>
      <point x="841" y="679"/>
    </contour>
    <contour>
      <point x="915" y="223" type="curve" smooth="yes"/>
      <point x="915" y="290"/>
      <point x="878" y="352"/>
      <point x="812" y="390" type="curve"/>
      <point x="652" y="390" type="line"/>
      <point x="457" y="390"/>
      <point x="391" y="296"/>
      <point x="391" y="203" type="curve" smooth="yes"/>
      <point x="391" y="115"/>
      <point x="467" y="33"/>
      <point x="640" y="33" type="curve" smooth="yes"/>
      <point x="829" y="33"/>
      <point x="915" y="121"/>
    </contour>
    <contour>
      <point x="851" y="600" type="line"/>
      <point x="1075" y="519"/>
      <point x="1175" y="364"/>
      <point x="1175" y="194" type="curve" smooth="yes"/>
      <point x="1175" y="-1"/>
      <point x="1011" y="-172"/>
      <point x="674" y="-172" type="curve" smooth="yes"/>
      <point x="292" y="-173"/>
      <point x="120" y="28"/>
      <point x="120" y="244" type="curve" smooth="yes"/>
      <point x="120" y="443"/>
      <point x="274" y="600"/>
      <point x="560" y="600" type="curve" smooth="yes"/>
    </contour>
    <contour>
      <point x="514" y="-166" type="move" name="btm"/>
    </contour>
    <contour>
      <point x="841" y="1289" type="move" name="top"/>
    </contour>
  </outline>
</glyph>
<glyph name="taprehalfdeva" format="1">
  <advance width="723"/>
  <outline>
    <contour>
      <point x="1013" y="860" type="line"/>
      <point x="1010" y="621" type="line"/>
      <point x="627" y="621" type="line"/>
      <point x="431" y="621"/>
      <point x="371" y="537"/>
      <point x="371" y="429" type="curve" smooth="yes"/>
      <point x="371" y="332"/>
      <point x="415" y="229"/>
      <point x="529" y="45" type="curve"/>
      <point x="297" y="-26" type="line"/>
      <point x="162" y="181"/>
      <point x="102" y="352"/>
      <point x="102" y="498" type="curve" smooth="yes"/>
      <point x="102" y="706"/>
      <point x="241" y="860"/>
      <point x="557" y="860" type="curve" smooth="yes"/>
    </contour>
    <contour>
      <point x="-30" y="1096" type="line"/>
      <point x="-30" y="1289" type="line"/>
      <point x="753" y="1289" type="line"/>
      <point x="753" y="1096" type="line"/>
    </contour>
  </outline>
</glyph>
<glyph name="tayadeva" format="1">
  <advance width="2057"/>
  <outline>
    <contour>
      <point x="-30" y="1096" type="line"/>
      <point x="-30" y="1289" type="line"/>
      <point x="770" y="1289" type="line"/>
      <point x="770" y="1096" type="line"/>
    </contour>
    <contour>
      <point x="1010" y="744" type="curve"/>
      <point x="895" y="508" type="line"/>
      <point x="780" y="599"/>
      <point x="690" y="635"/>
      <point x="583" y="635" type="curve" smooth="yes"/>
      <point x="431" y="635"/>
      <point x="370" y="541"/>
      <point x="370" y="435" type="curve" smooth="yes"/>
      <point x="370" y="335"/>
      <point x="423" y="218"/>
      <point x="529" y="45" type="curve"/>
      <point x="298" y="-26" type="line"/>
      <point x="170" y="171"/>
      <point x="101" y="352"/>
      <point x="102" y="506" type="curve" smooth="yes"/>
      <point x="104" y="710"/>
      <point x="233" y="877"/>
      <point x="515" y="877" type="curve" smooth="yes"/>
      <point x="694" y="877"/>
      <point x="868" y="819"/>
    </contour>
    <component base="yadeva" xOffset="686"/>
  </outline>
</glyph>
<glyph name="tthayadeva" format="1">
  <advance width="2604"/>
  <outline>
    <contour>
      <point x="2113" y="1133" type="line"/>
      <point x="2400" y="1133" type="line"/>
      <point x="2400" y="-57" type="line"/>
      <point x="2113" y="-57" type="line"/>
    </contour>
    <contour>
      <point x="1190" y="1096" type="line"/>
      <point x="1190" y="1289" type="line"/>
      <point x="2634" y="1289" type="line"/>
      <point x="2634" y="1096" type="line"/>
    </contour>
    <contour>
      <point x="954" y="690" type="line"/>
      <point x="943" y="902" type="line"/>
      <point x="1534" y="902" type="line"/>
      <point x="1771" y="902"/>
      <point x="1881" y="785"/>
      <point x="1881" y="637" type="curve" smooth="yes"/>
      <point x="1881" y="485"/>
      <point x="1755" y="390"/>
      <point x="1583" y="339" type="curve"/>
      <point x="1586" y="433" type="line"/>
      <point x="1653" y="333"/>
      <point x="1741" y="280"/>
      <point x="1832" y="280" type="curve" smooth="yes"/>
      <point x="1981" y="280"/>
      <point x="2092" y="355"/>
      <point x="2161" y="486" type="curve"/>
      <point x="2161" y="111" type="line"/>
      <point x="2096" y="71"/>
      <point x="2026" y="49"/>
      <point x="1922" y="49" type="curve" smooth="yes"/>
      <point x="1673" y="49"/>
      <point x="1443" y="212"/>
      <point x="1318" y="466" type="curve"/>
      <point x="1318" y="472" type="line"/>
      <point x="1544" y="517"/>
      <point x="1627" y="567"/>
      <point x="1627" y="620" type="curve" smooth="yes"/>
      <point x="1627" y="667"/>
      <point x="1593" y="690"/>
      <point x="1488" y="690" type="curve" smooth="yes"/>
    </contour>
    <component base="tthadeva"/>
    <contour>
      <point x="2113" y="1289" type="move" name="top"/>
    </contour>
  </outline>
</glyph>
